# xmcd
#
# Track frame offsets:
#	150
#	17209
#	40884
#	63400
#	92167
#	112817
#	138532
#	158066
#	181912
#	196757
#	212819
#	234373
#	256334
#	280583
#	296839
#
# Disc length: 4350 seconds
#
# Revision: 4
# Processed by: cddbd v1.5.2PL0 Copyright (c) Steve Scherf et al.
# Submitted via: dBpowerAMP V4.0
#
DISCID=d110fc0f
DTITLE=Miguel Bose  - Papito disc 1
DYEAR=2007
DGENRE=
TTITLE0=Si Puedo Volverte A Ver
TTITLE1=Encadenados
TTITLE2=Agua Y Sal
TTITLE3=El Sitio De Mi Recreo
TTITLE4=La Vida Es Bella
TTITLE5=El Verano Mas Triste
TTITLE6=MIA
TTITLE7=Habana
TTITLE8=Corazones
TTITLE9=Hojas Secas
TTITLE10=Manos Vacias
TTITLE11=Cada Dia
TTITLE12=Carla
TTITLE13=Donde Alcance El Sol
TTITLE14=Si Todos Fuesen Iguales A Ti
EXTD=
EXTT0=
EXTT1=
EXTT2=
EXTT3=
EXTT4=
EXTT5=
EXTT6=
EXTT7=
EXTT8=
EXTT9=
EXTT10=
EXTT11=
EXTT12=
EXTT13=
EXTT14=
PLAYORDER=
